<svg xmlns="http://www.w3.org/2000/svg" id="Icon_Fingerprint_Filled" width="24" height="24" data-name="Icon / Fingerprint / Filled" viewBox="0 0 24 24">
    <defs>
        <style>
            .cls-1{fill:none}.cls-2{fill:#0084bc}
        </style>
    </defs>
    <path id="Box" d="M0 0h24v24H0z" class="cls-1"/>
    <path id="Path_1991" d="M1073.813-67.53a.464.464 0 0 1-.23-.06 11.442 11.442 0 0 0-5.57-1.41 11.44 11.44 0 0 0-5.57 1.41.509.509 0 0 1-.68-.2.506.506 0 0 1 .2-.68 12.556 12.556 0 0 1 6.05-1.53 12.583 12.583 0 0 1 6.03 1.52.49.49 0 0 1 .21.67.49.49 0 0 1-.44.28zm-14.31 5.25a.521.521 0 0 1-.29-.09.5.5 0 0 1-.12-.7 10.339 10.339 0 0 1 3.75-3.27 11.543 11.543 0 0 1 10.31-.01 10.378 10.378 0 0 1 3.75 3.25.5.5 0 0 1-.12.7.5.5 0 0 1-.7-.12 9.388 9.388 0 0 0-3.39-2.94 10.537 10.537 0 0 0-9.4.01 9.487 9.487 0 0 0-3.4 2.96.436.436 0 0 1-.393.21zm6.25 12.07a.469.469 0 0 1-.35-.15 10.11 10.11 0 0 1-2.01-2.64 8.878 8.878 0 0 1-1.05-4.34 5.538 5.538 0 0 1 5.66-5.39 5.538 5.538 0 0 1 5.66 5.39.5.5 0 0 1-.5.5.5.5 0 0 1-.5-.5 4.536 4.536 0 0 0-4.66-4.39 4.536 4.536 0 0 0-4.66 4.39 7.834 7.834 0 0 0 .93 3.85 9.466 9.466 0 0 0 1.85 2.42.514.514 0 0 1 0 .71.549.549 0 0 1-.37.15zm7.17-1.85a5.385 5.385 0 0 1-3.1-.89 5.324 5.324 0 0 1-2.38-4.39.5.5 0 0 1 .5-.5.5.5 0 0 1 .5.5 4.3 4.3 0 0 0 1.94 3.56 4.384 4.384 0 0 0 2.54.71 6.609 6.609 0 0 0 1.04-.1.5.5 0 0 1 .58.41.5.5 0 0 1-.41.58 6.83 6.83 0 0 1-1.21.12zm-2.01 2.06a.586.586 0 0 1-.13-.02 7.8 7.8 0 0 1-3.72-2.1 7.3 7.3 0 0 1-2.17-5.22 3.016 3.016 0 0 1 3.08-2.94 3.016 3.016 0 0 1 3.08 2.94 2.014 2.014 0 0 0 2.08 1.94 2.014 2.014 0 0 0 2.08-1.94 7.053 7.053 0 0 0-7.25-6.83 7.3 7.3 0 0 0-6.61 4.03 6.433 6.433 0 0 0-.59 2.8 9.938 9.938 0 0 0 .67 3.61.488.488 0 0 1-.29.64.5.5 0 0 1-.64-.29 11.138 11.138 0 0 1-.73-3.96 7.513 7.513 0 0 1 .68-3.24 8.3 8.3 0 0 1 7.51-4.6 8.055 8.055 0 0 1 8.25 7.83 3.016 3.016 0 0 1-3.08 2.94 3.016 3.016 0 0 1-3.08-2.94 2.014 2.014 0 0 0-2.08-1.94 2.014 2.014 0 0 0-2.08 1.94 6.3 6.3 0 0 0 1.87 4.51 6.8 6.8 0 0 0 3.27 1.85.5.5 0 0 1 .35.61.488.488 0 0 1-.47.38z" class="cls-2" data-name="Path 1991" transform="translate(-1056 72)"/>
</svg>
