<svg aria-hidden="true" style="position: absolute; width: 0; height: 0; overflow: hidden;" version="1.1" xmlns="http://www.w3.org/2000/svg" xmlns:xlink="http://www.w3.org/1999/xlink">
<defs>
<symbol id="icon-applicants" viewBox="0 0 32 32">
<title>applicants</title>
<path fill="#4a4a4a" style="fill: var(--color1, #4a4a4a)" d="M28.377 14.851c0-2-0.632-3.873-1.729-5.482-0.069-0.101-0.144-0.188-0.227-0.268l-0.001-0.001c-0.248-0.239-0.77-0.676-1.431-0.845-0.938-0.182-4.83-0.891-9.305-1.010-5.104 0.135-9.477 1.044-9.52 1.053l-0.012 0.002c-0.455 0.088-0.857 0.321-1.111 0.658-1.279 1.698-2.023 3.721-2.023 5.893v1.835h0.002c0.014 0.723 0.168 1.437 0.555 2.053 0.031 0.050 0.063 0.099 0.095 0.147 0.168 0.252 0.517 0.367 0.837 0.273 0.83-0.249 1.553-0.578 2.22-0.99l-0.040 0.023c0.236-0.145 0.475-0.307 0.711-0.487 0.404-0.311 0.761-0.645 1.084-1.010l0.007-0.008c0.319-0.362 0.617-0.773 0.88-1.238 0.316-0.56 0.581-1.197 0.766-1.924 0.039-0.154 0.121-0.302 0.255-0.41s0.306-0.172 0.493-0.172c0.042 0 0.084 0.003 0.125 0.010l-0.005-0.001c0.199 0.025 0.382 0.116 0.503 0.261l0.045 0.050c0.267 0.295 1.825 1.923 4.784 3.423 0.228 0.116 0.462 0.231 0.708 0.344 1.838 0.852 4.152 1.619 6.957 2.021 0.859 0.132 1.888 0.229 2.932 0.269l0.052 0.002c0.263 0.010 0.513-0.103 0.65-0.296 0.064-0.092 0.127-0.187 0.19-0.286 0.409-0.652 0.557-1.412 0.555-2.178v-1.709z"></path>
<path fill="#4a4a4a" style="fill: var(--color1, #4a4a4a)" d="M25.142 24.645c1.787 0 3.235-1.217 3.235-2.719 0-0.635-0.261-1.217-0.694-1.68-0.952-0.025-1.852-0.085-2.741-0.18l0.146 0.013c-0.135-0.014-0.27-0.027-0.403-0.042-0.139-0.016-0.277-0.034-0.414-0.053-4.912-0.635-8.46-2.261-10.776-3.726-0.899-0.568-1.678-1.15-2.408-1.787l0.023 0.019c-0.274 0.675-0.597 1.257-0.979 1.794l0.018-0.026c-0.869 1.233-1.963 2.095-3.010 2.693-0.183 0.109-0.423 0.237-0.669 0.357l-0.065 0.028c-0.617 0.293-1.189 0.496-1.657 0.636-0.461 0.137-0.817 0.212-1.011 0.248-0.449 0.466-0.719 1.059-0.719 1.706 0 1.502 1.448 2.719 3.235 2.719h0.172c0.208 2.795 2.154 5.192 4.941 6.439 1.307 0.584 2.797 0.917 4.379 0.917 0.010 0 0.022 0 0.034 0 1.452 0 2.837-0.287 4.101-0.807l-0.072 0.026c2.955-1.202 5.041-3.675 5.256-6.575h0.075zM11.601 20.499c0.63 0 1.141 0.429 1.141 0.959s-0.511 0.959-1.141 0.959-1.141-0.429-1.141-0.959c0-0.53 0.511-0.96 1.141-0.96zM19.81 27.786c-0.802 0.858-2.046 1.411-3.445 1.411h-1.238c-1.599 0-2.995-0.722-3.76-1.797-0.394-0.552-0.624-1.195-0.624-1.887 0-0.21 0.203-0.38 0.453-0.38h9.099c0.25 0 0.453 0.17 0.453 0.38 0 0.859-0.353 1.647-0.939 2.274zM19.816 22.417c-0.63 0-1.141-0.429-1.141-0.959s0.511-0.96 1.141-0.96c0.631 0 1.142 0.43 1.142 0.96s-0.511 0.959-1.141 0.959zM3.955 4.83v0c0.121-0.043 3.592-1.146 6.488-1.598 4.229-0.659 10.582-0.836 17.629 1.56l0.731-1.055c0.395-0.572 0.112-1.306-0.606-1.57-2.119-0.777-6.6-2.132-12.097-2.165v-0.003c-0.034 0-0.066 0.001-0.1 0.002s-0.066-0.002-0.1-0.002v0.003c-5.496 0.033-9.977 1.389-12.097 2.165-0.719 0.264-1.001 0.999-0.605 1.57l0.756 1.092z"></path>
<path fill="#4a4a4a" style="fill: var(--color1, #4a4a4a)" d="M6.128 7.245s0.511-0.121 1.39-0.286c1.737-0.327 4.917-0.83 8.467-0.932 3.574 0.103 6.773 0.612 8.501 0.938 0.676 0.122 1.134 0.219 1.588 0.325l-0.232-0.046c0.15 0 0.29-0.075 0.368-0.197l0.959-1.495c-10.032-3.605-18.689-1.304-22.34 0.045l0.93 1.45c0.079 0.123 0.219 0.197 0.368 0.197z"></path>
</symbol>
<symbol id="icon-calendar" viewBox="0 0 32 32">
<title>calendar</title>
<path fill="#4a4a4a" style="fill: var(--color1, #4a4a4a)" d="M27.077 2.909h-1.385v-2.909h-2.769v2.909h-13.846v-2.909h-2.769v2.909h-1.385c-1.523 0-2.769 1.31-2.769 2.91v23.273c0 1.6 1.246 2.909 2.769 2.909h22.154c1.523 0 2.769-1.309 2.769-2.909v-23.273c0-1.6-1.246-2.91-2.769-2.91zM27.077 29.091h-22.154v-18.91h22.154v18.91z"></path>
</symbol>
<symbol id="icon-companies" viewBox="0 0 32 32">
<title>companies</title>
<path fill="#4a4a4a" style="fill: var(--color1, #4a4a4a)" d="M2.002 2.716v26.518h-1.682v2.765h31.36v-2.765h-1.682v-21.32l-13.373-2.188v23.507h-1.251v-29.235l-13.373 2.716zM17.6 11.52h3.2v3.2h-3.2v-3.2zM21.44 11.52h3.2v3.2h-3.2v-3.2zM25.92 11.52h3.2v3.2h-3.2v-3.2zM17.6 16.64h3.2v3.2h-3.2v-3.2zM21.44 16.64h3.2v3.2h-3.2v-3.2zM25.92 16.64h3.2v3.2h-3.2v-3.2zM17.6 20.48h3.2v3.2h-3.2v-3.2zM21.44 20.48h3.2v3.2h-3.2v-3.2zM25.92 20.48h3.2v3.2h-3.2v-3.2zM2.88 15.36h3.2v3.2h-3.2v-3.2zM7.36 15.36h3.2v3.2h-3.2v-3.2zM11.2 15.36h3.2v3.2h-3.2v-3.2zM2.88 10.88h3.2v3.2h-3.2v-3.2zM7.36 10.88h3.2v3.2h-3.2v-3.2zM11.2 10.88h3.2v3.2h-3.2v-3.2zM2.88 5.76h3.2v3.2h-3.2v-3.2zM7.36 5.76h3.2v3.2h-3.2v-3.2zM11.2 5.76h3.2v3.2h-3.2v-3.2z"></path>
</symbol>
<symbol id="icon-copy" viewBox="0 0 32 32">
<title>copy</title>
<path fill="#4a4a4a" style="fill: var(--color1, #4a4a4a)" d="M21.334 26.797c0-1.745 2.666-1.745 2.666 0v1.719c0 1.916-1.576 3.484-3.5 3.484h-17c-1.925 0-3.5-1.569-3.5-3.484v-17.032c0-1.916 1.575-3.484 3.5-3.484h2.459c1.754 0 1.754 2.654 0 2.654h-2.459c-0.46 0-0.834 0.372-0.834 0.829v17.032c0 0.456 0.375 0.83 0.834 0.83h17c0 0 0 0 0 0 0.459 0 0.832-0.371 0.834-0.83v-1.719z"></path>
<path fill="#4a4a4a" style="fill: var(--color1, #4a4a4a)" d="M28.495 0c1.883 0 3.432 1.502 3.497 3.362l0.002 0.122v4.9h0.006v8.405l-0.006-0.001v3.728c0 1.916-1.575 3.484-3.499 3.484h-16.996c-1.924 0-3.499-1.569-3.499-3.484v-17.032c0-1.916 1.575-3.484 3.499-3.484h16.996zM28.495 2.654h-16.996c-0.153 0-0.297 0.042-0.42 0.114l-0.060 0.038c-0.192 0.136-0.323 0.348-0.349 0.591l-0 0.004-0.004 0.083v17.032c0 0.431 0.334 0.788 0.758 0.826l0.076 0.004h16.996c0 0 0 0 0 0 0.459 0 0.832-0.371 0.834-0.83v-6.831c0-0.072 0.004-0.142 0.013-0.208v-2.956c-0.004-0.030-0.008-0.068-0.010-0.106l-0-0.004-0.003-0.098v-6.831c-0.002-0.432-0.333-0.787-0.755-0.827l-0.003-0-0.076-0.003z"></path>
</symbol>
<symbol id="icon-dashboard" viewBox="0 0 32 32">
<title>dashboard</title>
<path fill="#4a4a4a" style="fill: var(--color1, #4a4a4a)" d="M1.538 17.846h12.923v-17.846h-12.923v17.846zM1.538 30.769h12.923v-10.462h-12.923v10.462zM17.538 32h12.923v-17.846h-12.923v17.846zM17.538 0v10.462h12.923v-10.462h-12.923z"></path>
</symbol>
<symbol id="icon-interviews" viewBox="0 0 32 32">
<title>interviews</title>
<path fill="#4a4a4a" style="fill: var(--color1, #4a4a4a)" d="M20.687 0h-1.525c-1.589 0-2.86 1.566-2.86 3.473 0 2.247 1.462 5.584 3.623 5.584s3.623-3.405 3.623-5.651c0-1.84-1.271-3.405-2.86-3.405zM9.449 22.901c-0.612 0.194-1.223 0.453-1.63 0.906-0.476 0.453-0.815 0.97-0.951 1.552l-0.34 2.329-0.339 2.393c-0.068 0.259 0.068 0.518 0.272 0.712s0.475 0.324 0.747 0.324h10.732c0.272 0 0.543-0.13 0.747-0.324s0.272-0.453 0.272-0.712l-0.34-2.329-0.339-2.329c-0.203-0.582-0.543-1.164-0.951-1.552-0.475-0.453-1.019-0.712-1.63-0.906h-6.249v-0.065z"></path>
<path fill="#4a4a4a" style="fill: var(--color1, #4a4a4a)" d="M17.939 31.763h-10.8c-0.475 0-0.951-0.194-1.223-0.517-0.339-0.324-0.475-0.776-0.408-1.229l0.679-4.787c0.203-0.712 0.612-1.358 1.154-1.876s1.223-0.841 1.97-1.035h6.657c0.747 0.194 1.427 0.583 1.97 1.035 0.543 0.517 0.951 1.164 1.154 1.876v0.065l0.679 4.657c0.068 0.453-0.068 0.906-0.408 1.229-0.475 0.388-0.951 0.582-1.427 0.582zM7.479 25.488l-0.611 4.658c0 0.129 0.068 0.194 0.068 0.194 0.068 0.065 0.136 0.129 0.272 0.129h10.8c0.136 0 0.204-0.065 0.272-0.129s0.068-0.129 0.068-0.194l-0.68-4.658c-0.15-0.484-0.408-0.897-0.746-1.228l-0.001-0c-0.34-0.324-0.815-0.583-1.29-0.712h-6.046c-0.475 0.129-0.883 0.388-1.291 0.712-0.407 0.388-0.679 0.776-0.815 1.229zM12.662 13.144h-1.71c-1.354 0-2.495 1.284-2.495 2.923 0 2.21 1.497 5.132 3.35 5.132s3.35-2.922 3.35-5.132c-0.071-1.639-1.141-2.922-2.495-2.922z"></path>
<path fill="#4a4a4a" style="fill: var(--color1, #4a4a4a)" d="M11.807 21.983c-2.424 0-4.063-3.564-4.063-5.845 0-1.996 1.426-3.636 3.208-3.636h1.71c1.782 0 3.208 1.64 3.208 3.564 0 2.352-1.64 5.916-4.063 5.916zM10.952 13.857c-0.998 0-1.782 0.998-1.782 2.21 0 1.925 1.282 4.491 2.637 4.491s2.637-2.566 2.637-4.42c0-1.212-0.784-2.21-1.782-2.21h-1.71v-0.071zM20.552 11.842v-0.951c0-0.408-0.278-0.679-0.694-0.679s-0.694 0.272-0.694 0.679v0.951h1.389z"></path>
<path fill="#4a4a4a" style="fill: var(--color1, #4a4a4a)" d="M27.079 17.683l-0.694-4.891v-0.068c-0.227-0.777-0.636-1.442-1.179-1.969l-0.001-0.001c-0.555-0.543-1.25-0.883-2.014-1.087l-0.417-0.136-2.291 2.378v4.279c0 0.408-0.278 0.679-0.694 0.679s-0.694-0.272-0.694-0.679v-4.279l-2.291-2.377-0.417 0.136c-0.764 0.203-1.458 0.611-2.014 1.087l-0.278 0.272c1.805 0.611 3.125 2.445 3.125 4.551 0 1.291-0.347 2.717-1.041 4.008h9.026c0.486 0 0.972-0.204 1.25-0.543 0.555-0.408 0.694-0.883 0.625-1.358zM4.44 25.051c0.267-0.921 0.736-1.778 1.471-2.503 0.669-0.658 1.538-1.185 2.475-1.383h0.066c-0.402-0.527-0.736-1.186-1.003-1.845l-7.224 6.125c-0.2 0.198-0.267 0.461-0.2 0.725s0.334 0.395 0.602 0.395h3.478l0.335-1.515z"></path>
<path fill="#4a4a4a" style="fill: var(--color1, #4a4a4a)" d="M31.929 18.543c-0.065-0.287-0.325-0.43-0.584-0.43h-2.923c-0.074 0.683-0.331 1.295-0.72 1.799l0.006-0.008c-0.519 0.645-1.365 1.075-2.143 1.075h-8.054c0.584 0.286 1.104 0.645 1.494 1.146 0.715 0.717 1.169 1.72 1.429 2.722l0.065 0.214 0.194 1.505h3.378c0.13 0 0.324-0.072 0.455-0.143l7.339-7.020c0.13-0.287 0.195-0.574 0.065-0.86z"></path>
</symbol>
<symbol id="icon-job-listing" viewBox="0 0 32 32">
<title>job-listing</title>
<path fill="#4a4a4a" style="fill: var(--color1, #4a4a4a)" d="M12.864 2.88h6.911v2.88h2.305v-2.88c0-1.589-1.032-2.88-2.305-2.88h-6.911c-1.272 0-2.303 1.291-2.303 2.88v2.88h2.304v-2.88zM28.734 7.68h-25.468c-1.273 0-2.307 1.358-2.307 3.038v18.242c0 1.677 1.034 3.040 2.307 3.040h25.468c1.274 0 2.306-1.363 2.306-3.040v-18.242c0-1.68-1.032-3.038-2.306-3.038z"></path>
</symbol>
<symbol id="icon-megaphone" viewBox="0 0 32 32">
<title>megaphone</title>
<path fill="#4a4a4a" style="fill: var(--color1, #4a4a4a)" d="M15.333 20.48v-11.813c-0.331 0.031-0.659 0.083-0.993 0.099h-9.548c-0.529 0-0.958 0.433-0.958 0.968v0.968h-2.876c-0.529 0-0.958 0.433-0.958 0.968v5.808c0 0.535 0.429 0.969 0.959 0.969h2.875v0.968c0 0.534 0.429 0.968 0.959 0.968h0.58l3.853 10.373c0.234 0.613 0.757 1.068 1.398 1.202l0.012 0.002c0.117 0.026 0.252 0.042 0.39 0.042 0.527 0 1.003-0.22 1.34-0.573l0.001-0.001 2.302-2.305c0.589-0.595 0.729-1.522 0.353-2.24l-3.217-6.5h2.545c0.33 0.016 0.655 0.068 0.983 0.099zM31.844 0.495c-0.020-0.036-0.040-0.068-0.063-0.097l0.001 0.002c-0.1-0.142-0.235-0.254-0.392-0.325l-0.006-0.002c-0.005-0.003-0.009-0.011-0.015-0.013-0.019-0.007-0.036 0.004-0.055-0.002-0.085-0.027-0.171-0.057-0.267-0.057-0.065 0-0.121 0.027-0.185 0.041-0.036 0.009-0.070 0.011-0.107 0.023-0.168 0.060-0.308 0.16-0.415 0.289l-0.001 0.002c-0.008 0.009-0.019 0.011-0.027 0.019-2.97 3.875-7.111 6.468-11.646 7.418v13.087c4.535 0.949 8.676 3.54 11.646 7.416 0.007 0.010 0.021 0.014 0.030 0.027 0.067 0.080 0.149 0.143 0.237 0.197 0.028 0.018 0.051 0.045 0.080 0.059 0.12 0.055 0.249 0.090 0.388 0.090 0.109 0 0.215-0.020 0.322-0.060 0.006-0.001 0.010-0.009 0.015-0.011 0.162-0.068 0.293-0.183 0.398-0.328 0.023-0.033 0.040-0.061 0.061-0.096 0.091-0.158 0.156-0.332 0.156-0.529v-26.619c0-0.197-0.065-0.371-0.156-0.529z"></path>
</symbol>
<symbol id="icon-reports" viewBox="0 0 32 32">
<title>reports</title>
<path fill="#4a4a4a" style="fill: var(--color1, #4a4a4a)" d="M29.485 0h-26.794c-0.956 0.001-1.731 0.777-1.731 1.733 0 0.002 0 0.004 0 0.007v-0 28.333c0 1.012 0.824 1.928 1.731 1.928h26.794c0.908 0 1.555-0.915 1.555-1.928v-28.333c0-1.013-0.647-1.74-1.555-1.74zM22.080 5.12c2.892 0.317 5.438 2.638 5.76 5.76h-5.76v-5.76zM28.48 11.52c-0.168 1.234-0.681 2.73-1.476 3.84l-3.644-3.84h5.12zM21.549 3.84v7.616l5.011 5.361c-1.139 1.085-2.61 1.743-4.222 1.743-3.621 0-6.658-3.293-6.658-7.379 0-3.838 2.56-6.963 5.869-7.341zM4.994 3.84h7.931c0.461 0 0.835 0.483 0.835 0.96s-0.374 0.96-0.835 0.96h-7.931c-0.461 0-0.835-0.483-0.835-0.96s0.374-0.96 0.835-0.96zM4.994 8.96h7.931c0.461 0 0.835 0.483 0.835 0.96s-0.374 0.96-0.835 0.96h-7.93c-0.461 0-0.835-0.483-0.835-0.96s0.374-0.96 0.835-0.96zM4.994 12.8h7.931c0.461 0 0.835 0.483 0.835 0.96s-0.374 0.96-0.835 0.96h-7.93c-0.461 0-0.835-0.483-0.835-0.96s0.374-0.96 0.835-0.96zM4.405 17.92h11.029c0.488 0 0.885 0.483 0.885 0.96s-0.397 0.96-0.885 0.96h-11.029c-0.488 0-0.885-0.483-0.885-0.96s0.396-0.96 0.885-0.96zM28.266 28.16h-23.252c-0.471 0-0.853-0.483-0.853-0.96s0.382-0.96 0.853-0.96h23.254c0.471 0 0.853 0.483 0.853 0.96s-0.382 0.96-0.854 0.96zM28.266 23.68h-23.252c-0.471 0-0.853-0.483-0.853-0.96s0.382-0.96 0.853-0.96h23.254c0.471 0 0.853 0.483 0.853 0.96s-0.382 0.96-0.854 0.96z"></path>
</symbol>
<symbol id="icon-trash" viewBox="0 0 30 32">
<title>trash</title>
<path fill="#4a4a4a" style="fill: var(--color1, #4a4a4a)" d="M4.253 29.933c0.1 1.1 0.997 1.9 2.093 1.9h17.21c0.001 0 0.003 0 0.004 0 1.089 0 1.984-0.83 2.088-1.891l0.001-0.009 1.927-20.267h-25.251l1.927 20.267zM19.17 16c0-0.567 0.465-1.066 1.063-1.066 0.565 0 1.063 0.467 1.063 1.066v9.5c0 0.567-0.465 1.067-1.063 1.067-0.587-0.005-1.060-0.48-1.063-1.067v-9.5zM13.887 16c0-0.567 0.465-1.066 1.063-1.066 0.565 0 1.063 0.467 1.063 1.066v9.5c0 0.567-0.465 1.067-1.063 1.067-0.587-0.005-1.060-0.48-1.063-1.067v-9.5zM8.638 16c0-0.567 0.465-1.066 1.063-1.066 0.565 0 1.063 0.467 1.063 1.066v9.5c0 0.567-0.465 1.067-1.063 1.067-0.586-0.005-1.060-0.48-1.063-1.067v-9.5z"></path>
<path fill="#4a4a4a" style="fill: var(--color1, #4a4a4a)" d="M27.576 3.333h-8.406v-1.067c0-0.004 0-0.008 0-0.012 0-1.153-0.935-2.088-2.088-2.088-0.002 0-0.004 0-0.006 0h-4.219c-0.002 0-0.003 0-0.005 0-1.153 0-2.088 0.935-2.088 2.088 0 0.004 0 0.009 0 0.013v-0.001 1.067h-8.439c-0.002 0-0.003 0-0.005 0-1.153 0-2.088 0.935-2.088 2.088 0 0.004 0 0.008 0 0.013v-0.001c-0 0.004-0 0.008-0 0.012 0 1.153 0.935 2.088 2.088 2.088 0.002 0 0.004 0 0.006 0h25.25c0.002 0 0.003 0 0.005 0 1.153 0 2.088-0.935 2.088-2.088 0-0.004 0-0.008-0-0.013v0.001c0-0.004 0-0.008 0-0.012 0-1.153-0.935-2.088-2.088-2.088-0.002 0-0.004 0-0.006 0h0z"></path>
</symbol>
<symbol id="icon-user-management" viewBox="0 0 32 32">
<title>user-management</title>
<path fill="#4a4a4a" style="fill: var(--color1, #4a4a4a)" d="M16.295 0c-3.372 0-6.142 2.904-6.142 6.462s2.769 6.462 6.142 6.462c3.393 0 6.166-2.905 6.166-6.462s-2.774-6.462-6.166-6.462zM15.991 20.923c2.938 0 5.876 0.477 8.306 1.414 1.9 0.731 3.481 1.735 4.542 2.922 1.059 1.187 1.622 2.503 1.622 4.135v2.606h-28.923v-2.606c0-1.871 0.732-3.345 2.102-4.64s3.392-2.324 5.732-2.978c2.047-0.572 4.333-0.855 6.618-0.853z"></path>
</symbol>
<symbol id="icon-write" viewBox="0 0 32 32">
<title>write</title>
<path fill="#4a4a4a" style="fill: var(--color1, #4a4a4a)" d="M26.541 19.086c0-2.185 3.317-2.185 3.317 0v8.552c0 2.398-1.96 4.361-4.355 4.361h-21.149c-2.394 0-4.354-1.964-4.354-4.361v-21.325c0-2.398 1.96-4.362 4.354-4.362h9.1c2.182 0 2.182 3.323 0 3.323h-9.1c-0.572 0-1.037 0.467-1.037 1.039v21.325c0 0.571 0.466 1.039 1.037 1.039h21.149c0.572 0 1.038-0.467 1.038-1.039v-8.552zM27.506 0.393l4.101 4.108c0.524 0.525 0.524 1.384 0 1.909l-13.508 13.529-6.938 0.981 0.906-6.974 13.532-13.553c0.244-0.243 0.581-0.394 0.953-0.394s0.709 0.151 0.953 0.394l-0-0z"></path>
</symbol>
</defs>
</svg>
