<!-- Generated by IcoMoon.io -->
<svg version="1.1" xmlns="http://www.w3.org/2000/svg" width="32" height="32" viewBox="0 0 32 32">
<title>applicants</title>
<path fill="#4a4a4a" d="M28.377 14.851c0-2-0.632-3.873-1.729-5.482-0.069-0.101-0.144-0.188-0.227-0.268l-0.001-0.001c-0.248-0.239-0.77-0.676-1.431-0.845-0.938-0.182-4.83-0.891-9.305-1.010-5.104 0.135-9.477 1.044-9.52 1.053l-0.012 0.002c-0.455 0.088-0.857 0.321-1.111 0.658-1.279 1.698-2.023 3.721-2.023 5.893v1.835h0.002c0.014 0.723 0.168 1.437 0.555 2.053 0.031 0.050 0.063 0.099 0.095 0.147 0.168 0.252 0.517 0.367 0.837 0.273 0.83-0.249 1.553-0.578 2.22-0.99l-0.040 0.023c0.236-0.145 0.475-0.307 0.711-0.487 0.404-0.311 0.761-0.645 1.084-1.010l0.007-0.008c0.319-0.362 0.617-0.773 0.88-1.238 0.316-0.56 0.581-1.197 0.766-1.924 0.039-0.154 0.121-0.302 0.255-0.41s0.306-0.172 0.493-0.172c0.042 0 0.084 0.003 0.125 0.010l-0.005-0.001c0.199 0.025 0.382 0.116 0.503 0.261l0.045 0.050c0.267 0.295 1.825 1.923 4.784 3.423 0.228 0.116 0.462 0.231 0.708 0.344 1.838 0.852 4.152 1.619 6.957 2.021 0.859 0.132 1.888 0.229 2.932 0.269l0.052 0.002c0.263 0.010 0.513-0.103 0.65-0.296 0.064-0.092 0.127-0.187 0.19-0.286 0.409-0.652 0.557-1.412 0.555-2.178v-1.709z"></path>
<path fill="#4a4a4a" d="M25.142 24.645c1.787 0 3.235-1.217 3.235-2.719 0-0.635-0.261-1.217-0.694-1.68-0.952-0.025-1.852-0.085-2.741-0.18l0.146 0.013c-0.135-0.014-0.27-0.027-0.403-0.042-0.139-0.016-0.277-0.034-0.414-0.053-4.912-0.635-8.46-2.261-10.776-3.726-0.899-0.568-1.678-1.15-2.408-1.787l0.023 0.019c-0.274 0.675-0.597 1.257-0.979 1.794l0.018-0.026c-0.869 1.233-1.963 2.095-3.010 2.693-0.183 0.109-0.423 0.237-0.669 0.357l-0.065 0.028c-0.617 0.293-1.189 0.496-1.657 0.636-0.461 0.137-0.817 0.212-1.011 0.248-0.449 0.466-0.719 1.059-0.719 1.706 0 1.502 1.448 2.719 3.235 2.719h0.172c0.208 2.795 2.154 5.192 4.941 6.439 1.307 0.584 2.797 0.917 4.379 0.917 0.010 0 0.022 0 0.034 0 1.452 0 2.837-0.287 4.101-0.807l-0.072 0.026c2.955-1.202 5.041-3.675 5.256-6.575h0.075zM11.601 20.499c0.63 0 1.141 0.429 1.141 0.959s-0.511 0.959-1.141 0.959-1.141-0.429-1.141-0.959c0-0.53 0.511-0.96 1.141-0.96zM19.81 27.786c-0.802 0.858-2.046 1.411-3.445 1.411h-1.238c-1.599 0-2.995-0.722-3.76-1.797-0.394-0.552-0.624-1.195-0.624-1.887 0-0.21 0.203-0.38 0.453-0.38h9.099c0.25 0 0.453 0.17 0.453 0.38 0 0.859-0.353 1.647-0.939 2.274zM19.816 22.417c-0.63 0-1.141-0.429-1.141-0.959s0.511-0.96 1.141-0.96c0.631 0 1.142 0.43 1.142 0.96s-0.511 0.959-1.141 0.959zM3.955 4.83v0c0.121-0.043 3.592-1.146 6.488-1.598 4.229-0.659 10.582-0.836 17.629 1.56l0.731-1.055c0.395-0.572 0.112-1.306-0.606-1.57-2.119-0.777-6.6-2.132-12.097-2.165v-0.003c-0.034 0-0.066 0.001-0.1 0.002s-0.066-0.002-0.1-0.002v0.003c-5.496 0.033-9.977 1.389-12.097 2.165-0.719 0.264-1.001 0.999-0.605 1.57l0.756 1.092z"></path>
<path fill="#4a4a4a" d="M6.128 7.245s0.511-0.121 1.39-0.286c1.737-0.327 4.917-0.83 8.467-0.932 3.574 0.103 6.773 0.612 8.501 0.938 0.676 0.122 1.134 0.219 1.588 0.325l-0.232-0.046c0.15 0 0.29-0.075 0.368-0.197l0.959-1.495c-10.032-3.605-18.689-1.304-22.34 0.045l0.93 1.45c0.079 0.123 0.219 0.197 0.368 0.197z"></path>
</svg>
