<!-- Generated by IcoMoon.io -->
<svg version="1.1" xmlns="http://www.w3.org/2000/svg" width="32" height="32" viewBox="0 0 32 32">
<title>companies</title>
<path fill="#4a4a4a" d="M2.002 2.716v26.518h-1.682v2.765h31.36v-2.765h-1.682v-21.32l-13.373-2.188v23.507h-1.251v-29.235l-13.373 2.716zM17.6 11.52h3.2v3.2h-3.2v-3.2zM21.44 11.52h3.2v3.2h-3.2v-3.2zM25.92 11.52h3.2v3.2h-3.2v-3.2zM17.6 16.64h3.2v3.2h-3.2v-3.2zM21.44 16.64h3.2v3.2h-3.2v-3.2zM25.92 16.64h3.2v3.2h-3.2v-3.2zM17.6 20.48h3.2v3.2h-3.2v-3.2zM21.44 20.48h3.2v3.2h-3.2v-3.2zM25.92 20.48h3.2v3.2h-3.2v-3.2zM2.88 15.36h3.2v3.2h-3.2v-3.2zM7.36 15.36h3.2v3.2h-3.2v-3.2zM11.2 15.36h3.2v3.2h-3.2v-3.2zM2.88 10.88h3.2v3.2h-3.2v-3.2zM7.36 10.88h3.2v3.2h-3.2v-3.2zM11.2 10.88h3.2v3.2h-3.2v-3.2zM2.88 5.76h3.2v3.2h-3.2v-3.2zM7.36 5.76h3.2v3.2h-3.2v-3.2zM11.2 5.76h3.2v3.2h-3.2v-3.2z"></path>
</svg>
