<!-- Generated by IcoMoon.io -->
<svg version="1.1" xmlns="http://www.w3.org/2000/svg" width="32" height="32" viewBox="0 0 32 32">
<title>copy</title>
<path fill="#4a4a4a" d="M21.334 26.797c0-1.745 2.666-1.745 2.666 0v1.719c0 1.916-1.576 3.484-3.5 3.484h-17c-1.925 0-3.5-1.569-3.5-3.484v-17.032c0-1.916 1.575-3.484 3.5-3.484h2.459c1.754 0 1.754 2.654 0 2.654h-2.459c-0.46 0-0.834 0.372-0.834 0.829v17.032c0 0.456 0.375 0.83 0.834 0.83h17c0 0 0 0 0 0 0.459 0 0.832-0.371 0.834-0.83v-1.719z"></path>
<path fill="#4a4a4a" d="M28.495 0c1.883 0 3.432 1.502 3.497 3.362l0.002 0.122v4.9h0.006v8.405l-0.006-0.001v3.728c0 1.916-1.575 3.484-3.499 3.484h-16.996c-1.924 0-3.499-1.569-3.499-3.484v-17.032c0-1.916 1.575-3.484 3.499-3.484h16.996zM28.495 2.654h-16.996c-0.153 0-0.297 0.042-0.42 0.114l-0.060 0.038c-0.192 0.136-0.323 0.348-0.349 0.591l-0 0.004-0.004 0.083v17.032c0 0.431 0.334 0.788 0.758 0.826l0.076 0.004h16.996c0 0 0 0 0 0 0.459 0 0.832-0.371 0.834-0.83v-6.831c0-0.072 0.004-0.142 0.013-0.208v-2.956c-0.004-0.030-0.008-0.068-0.010-0.106l-0-0.004-0.003-0.098v-6.831c-0.002-0.432-0.333-0.787-0.755-0.827l-0.003-0-0.076-0.003z"></path>
</svg>
