<!-- Generated by IcoMoon.io -->
<svg version="1.1" xmlns="http://www.w3.org/2000/svg" width="32" height="32" viewBox="0 0 32 32">
<title>interviews</title>
<path fill="#4a4a4a" d="M20.687 0h-1.525c-1.589 0-2.86 1.566-2.86 3.473 0 2.247 1.462 5.584 3.623 5.584s3.623-3.405 3.623-5.651c0-1.84-1.271-3.405-2.86-3.405zM9.449 22.901c-0.612 0.194-1.223 0.453-1.63 0.906-0.476 0.453-0.815 0.97-0.951 1.552l-0.34 2.329-0.339 2.393c-0.068 0.259 0.068 0.518 0.272 0.712s0.475 0.324 0.747 0.324h10.732c0.272 0 0.543-0.13 0.747-0.324s0.272-0.453 0.272-0.712l-0.34-2.329-0.339-2.329c-0.203-0.582-0.543-1.164-0.951-1.552-0.475-0.453-1.019-0.712-1.63-0.906h-6.249v-0.065z"></path>
<path fill="#4a4a4a" d="M17.939 31.763h-10.8c-0.475 0-0.951-0.194-1.223-0.517-0.339-0.324-0.475-0.776-0.408-1.229l0.679-4.787c0.203-0.712 0.612-1.358 1.154-1.876s1.223-0.841 1.97-1.035h6.657c0.747 0.194 1.427 0.583 1.97 1.035 0.543 0.517 0.951 1.164 1.154 1.876v0.065l0.679 4.657c0.068 0.453-0.068 0.906-0.408 1.229-0.475 0.388-0.951 0.582-1.427 0.582zM7.479 25.488l-0.611 4.658c0 0.129 0.068 0.194 0.068 0.194 0.068 0.065 0.136 0.129 0.272 0.129h10.8c0.136 0 0.204-0.065 0.272-0.129s0.068-0.129 0.068-0.194l-0.68-4.658c-0.15-0.484-0.408-0.897-0.746-1.228l-0.001-0c-0.34-0.324-0.815-0.583-1.29-0.712h-6.046c-0.475 0.129-0.883 0.388-1.291 0.712-0.407 0.388-0.679 0.776-0.815 1.229zM12.662 13.144h-1.71c-1.354 0-2.495 1.284-2.495 2.923 0 2.21 1.497 5.132 3.35 5.132s3.35-2.922 3.35-5.132c-0.071-1.639-1.141-2.922-2.495-2.922z"></path>
<path fill="#4a4a4a" d="M11.807 21.983c-2.424 0-4.063-3.564-4.063-5.845 0-1.996 1.426-3.636 3.208-3.636h1.71c1.782 0 3.208 1.64 3.208 3.564 0 2.352-1.64 5.916-4.063 5.916zM10.952 13.857c-0.998 0-1.782 0.998-1.782 2.21 0 1.925 1.282 4.491 2.637 4.491s2.637-2.566 2.637-4.42c0-1.212-0.784-2.21-1.782-2.21h-1.71v-0.071zM20.552 11.842v-0.951c0-0.408-0.278-0.679-0.694-0.679s-0.694 0.272-0.694 0.679v0.951h1.389z"></path>
<path fill="#4a4a4a" d="M27.079 17.683l-0.694-4.891v-0.068c-0.227-0.777-0.636-1.442-1.179-1.969l-0.001-0.001c-0.555-0.543-1.25-0.883-2.014-1.087l-0.417-0.136-2.291 2.378v4.279c0 0.408-0.278 0.679-0.694 0.679s-0.694-0.272-0.694-0.679v-4.279l-2.291-2.377-0.417 0.136c-0.764 0.203-1.458 0.611-2.014 1.087l-0.278 0.272c1.805 0.611 3.125 2.445 3.125 4.551 0 1.291-0.347 2.717-1.041 4.008h9.026c0.486 0 0.972-0.204 1.25-0.543 0.555-0.408 0.694-0.883 0.625-1.358zM4.44 25.051c0.267-0.921 0.736-1.778 1.471-2.503 0.669-0.658 1.538-1.185 2.475-1.383h0.066c-0.402-0.527-0.736-1.186-1.003-1.845l-7.224 6.125c-0.2 0.198-0.267 0.461-0.2 0.725s0.334 0.395 0.602 0.395h3.478l0.335-1.515z"></path>
<path fill="#4a4a4a" d="M31.929 18.543c-0.065-0.287-0.325-0.43-0.584-0.43h-2.923c-0.074 0.683-0.331 1.295-0.72 1.799l0.006-0.008c-0.519 0.645-1.365 1.075-2.143 1.075h-8.054c0.584 0.286 1.104 0.645 1.494 1.146 0.715 0.717 1.169 1.72 1.429 2.722l0.065 0.214 0.194 1.505h3.378c0.13 0 0.324-0.072 0.455-0.143l7.339-7.020c0.13-0.287 0.195-0.574 0.065-0.86z"></path>
</svg>
