<!-- Generated by IcoMoon.io -->
<svg version="1.1" xmlns="http://www.w3.org/2000/svg" width="32" height="32" viewBox="0 0 32 32">
<title>megaphone</title>
<path fill="#4a4a4a" d="M15.333 20.48v-11.813c-0.331 0.031-0.659 0.083-0.993 0.099h-9.548c-0.529 0-0.958 0.433-0.958 0.968v0.968h-2.876c-0.529 0-0.958 0.433-0.958 0.968v5.808c0 0.535 0.429 0.969 0.959 0.969h2.875v0.968c0 0.534 0.429 0.968 0.959 0.968h0.58l3.853 10.373c0.234 0.613 0.757 1.068 1.398 1.202l0.012 0.002c0.117 0.026 0.252 0.042 0.39 0.042 0.527 0 1.003-0.22 1.34-0.573l0.001-0.001 2.302-2.305c0.589-0.595 0.729-1.522 0.353-2.24l-3.217-6.5h2.545c0.33 0.016 0.655 0.068 0.983 0.099zM31.844 0.495c-0.020-0.036-0.040-0.068-0.063-0.097l0.001 0.002c-0.1-0.142-0.235-0.254-0.392-0.325l-0.006-0.002c-0.005-0.003-0.009-0.011-0.015-0.013-0.019-0.007-0.036 0.004-0.055-0.002-0.085-0.027-0.171-0.057-0.267-0.057-0.065 0-0.121 0.027-0.185 0.041-0.036 0.009-0.070 0.011-0.107 0.023-0.168 0.060-0.308 0.16-0.415 0.289l-0.001 0.002c-0.008 0.009-0.019 0.011-0.027 0.019-2.97 3.875-7.111 6.468-11.646 7.418v13.087c4.535 0.949 8.676 3.54 11.646 7.416 0.007 0.010 0.021 0.014 0.030 0.027 0.067 0.080 0.149 0.143 0.237 0.197 0.028 0.018 0.051 0.045 0.080 0.059 0.12 0.055 0.249 0.090 0.388 0.090 0.109 0 0.215-0.020 0.322-0.060 0.006-0.001 0.010-0.009 0.015-0.011 0.162-0.068 0.293-0.183 0.398-0.328 0.023-0.033 0.040-0.061 0.061-0.096 0.091-0.158 0.156-0.332 0.156-0.529v-26.619c0-0.197-0.065-0.371-0.156-0.529z"></path>
</svg>
