<!-- Generated by IcoMoon.io -->
<svg version="1.1" xmlns="http://www.w3.org/2000/svg" width="32" height="32" viewBox="0 0 32 32">
<title>reports</title>
<path fill="#4a4a4a" d="M29.485 0h-26.794c-0.956 0.001-1.731 0.777-1.731 1.733 0 0.002 0 0.004 0 0.007v-0 28.333c0 1.012 0.824 1.928 1.731 1.928h26.794c0.908 0 1.555-0.915 1.555-1.928v-28.333c0-1.013-0.647-1.74-1.555-1.74zM22.080 5.12c2.892 0.317 5.438 2.638 5.76 5.76h-5.76v-5.76zM28.48 11.52c-0.168 1.234-0.681 2.73-1.476 3.84l-3.644-3.84h5.12zM21.549 3.84v7.616l5.011 5.361c-1.139 1.085-2.61 1.743-4.222 1.743-3.621 0-6.658-3.293-6.658-7.379 0-3.838 2.56-6.963 5.869-7.341zM4.994 3.84h7.931c0.461 0 0.835 0.483 0.835 0.96s-0.374 0.96-0.835 0.96h-7.931c-0.461 0-0.835-0.483-0.835-0.96s0.374-0.96 0.835-0.96zM4.994 8.96h7.931c0.461 0 0.835 0.483 0.835 0.96s-0.374 0.96-0.835 0.96h-7.93c-0.461 0-0.835-0.483-0.835-0.96s0.374-0.96 0.835-0.96zM4.994 12.8h7.931c0.461 0 0.835 0.483 0.835 0.96s-0.374 0.96-0.835 0.96h-7.93c-0.461 0-0.835-0.483-0.835-0.96s0.374-0.96 0.835-0.96zM4.405 17.92h11.029c0.488 0 0.885 0.483 0.885 0.96s-0.397 0.96-0.885 0.96h-11.029c-0.488 0-0.885-0.483-0.885-0.96s0.396-0.96 0.885-0.96zM28.266 28.16h-23.252c-0.471 0-0.853-0.483-0.853-0.96s0.382-0.96 0.853-0.96h23.254c0.471 0 0.853 0.483 0.853 0.96s-0.382 0.96-0.854 0.96zM28.266 23.68h-23.252c-0.471 0-0.853-0.483-0.853-0.96s0.382-0.96 0.853-0.96h23.254c0.471 0 0.853 0.483 0.853 0.96s-0.382 0.96-0.854 0.96z"></path>
</svg>
