<!-- Generated by IcoMoon.io -->
<svg version="1.1" xmlns="http://www.w3.org/2000/svg" width="30" height="32" viewBox="0 0 30 32">
<title>trash</title>
<path fill="#4a4a4a" d="M4.253 29.933c0.1 1.1 0.997 1.9 2.093 1.9h17.21c0.001 0 0.003 0 0.004 0 1.089 0 1.984-0.83 2.088-1.891l0.001-0.009 1.927-20.267h-25.251l1.927 20.267zM19.17 16c0-0.567 0.465-1.066 1.063-1.066 0.565 0 1.063 0.467 1.063 1.066v9.5c0 0.567-0.465 1.067-1.063 1.067-0.587-0.005-1.060-0.48-1.063-1.067v-9.5zM13.887 16c0-0.567 0.465-1.066 1.063-1.066 0.565 0 1.063 0.467 1.063 1.066v9.5c0 0.567-0.465 1.067-1.063 1.067-0.587-0.005-1.060-0.48-1.063-1.067v-9.5zM8.638 16c0-0.567 0.465-1.066 1.063-1.066 0.565 0 1.063 0.467 1.063 1.066v9.5c0 0.567-0.465 1.067-1.063 1.067-0.586-0.005-1.060-0.48-1.063-1.067v-9.5z"></path>
<path fill="#4a4a4a" d="M27.576 3.333h-8.406v-1.067c0-0.004 0-0.008 0-0.012 0-1.153-0.935-2.088-2.088-2.088-0.002 0-0.004 0-0.006 0h-4.219c-0.002 0-0.003 0-0.005 0-1.153 0-2.088 0.935-2.088 2.088 0 0.004 0 0.009 0 0.013v-0.001 1.067h-8.439c-0.002 0-0.003 0-0.005 0-1.153 0-2.088 0.935-2.088 2.088 0 0.004 0 0.008 0 0.013v-0.001c-0 0.004-0 0.008-0 0.012 0 1.153 0.935 2.088 2.088 2.088 0.002 0 0.004 0 0.006 0h25.25c0.002 0 0.003 0 0.005 0 1.153 0 2.088-0.935 2.088-2.088 0-0.004 0-0.008-0-0.013v0.001c0-0.004 0-0.008 0-0.012 0-1.153-0.935-2.088-2.088-2.088-0.002 0-0.004 0-0.006 0h0z"></path>
</svg>
