<!-- Generated by IcoMoon.io -->
<svg version="1.1" xmlns="http://www.w3.org/2000/svg" width="32" height="32" viewBox="0 0 32 32">
<title>user-management</title>
<path fill="#4a4a4a" d="M16.295 0c-3.372 0-6.142 2.904-6.142 6.462s2.769 6.462 6.142 6.462c3.393 0 6.166-2.905 6.166-6.462s-2.774-6.462-6.166-6.462zM15.991 20.923c2.938 0 5.876 0.477 8.306 1.414 1.9 0.731 3.481 1.735 4.542 2.922 1.059 1.187 1.622 2.503 1.622 4.135v2.606h-28.923v-2.606c0-1.871 0.732-3.345 2.102-4.64s3.392-2.324 5.732-2.978c2.047-0.572 4.333-0.855 6.618-0.853z"></path>
</svg>
