<!-- Generated by IcoMoon.io -->
<svg version="1.1" xmlns="http://www.w3.org/2000/svg" width="32" height="32" viewBox="0 0 32 32">
<title>write</title>
<path fill="#4a4a4a" d="M26.541 19.086c0-2.185 3.317-2.185 3.317 0v8.552c0 2.398-1.96 4.361-4.355 4.361h-21.149c-2.394 0-4.354-1.964-4.354-4.361v-21.325c0-2.398 1.96-4.362 4.354-4.362h9.1c2.182 0 2.182 3.323 0 3.323h-9.1c-0.572 0-1.037 0.467-1.037 1.039v21.325c0 0.571 0.466 1.039 1.037 1.039h21.149c0.572 0 1.038-0.467 1.038-1.039v-8.552zM27.506 0.393l4.101 4.108c0.524 0.525 0.524 1.384 0 1.909l-13.508 13.529-6.938 0.981 0.906-6.974 13.532-13.553c0.244-0.243 0.581-0.394 0.953-0.394s0.709 0.151 0.953 0.394l-0-0z"></path>
</svg>
